<?xml version="1.0" encoding="UTF-8" standalone="no"?>
<svg width="800" height="500" viewBox="0 0 800 500" xmlns="http://www.w3.org/2000/svg">
  <!-- Background -->
  <rect width="800" height="500" fill="#f8fafc" rx="6" />

  <!-- Dashboard UI -->
  <g>
    <!-- Left sidebar -->
    <rect x="0" y="0" width="200" height="500" fill="#1e293b" />
    
    <!-- Sidebar logo -->
    <rect x="20" y="20" width="160" height="40" rx="4" fill="#334155" />
    <circle cx="40" cy="40" r="10" fill="#60a5fa" />
    <rect x="60" y="35" width="100" height="10" rx="2" fill="#94a3b8" />
    
    <!-- Sidebar menu -->
    <rect x="20" y="80" width="160" height="40" rx="4" fill="#475569" />
    <rect x="30" y="95" width="20" height="10" rx="2" fill="#94a3b8" />
    <rect x="60" y="95" width="80" height="10" rx="2" fill="#e2e8f0" />
    
    <rect x="20" y="130" width="160" height="40" rx="4" fill="#334155" />
    <rect x="30" y="145" width="20" height="10" rx="2" fill="#94a3b8" />
    <rect x="60" y="145" width="80" height="10" rx="2" fill="#94a3b8" />
    
    <rect x="20" y="180" width="160" height="40" rx="4" fill="#334155" />
    <rect x="30" y="195" width="20" height="10" rx="2" fill="#94a3b8" />
    <rect x="60" y="195" width="80" height="10" rx="2" fill="#94a3b8" />
    
    <rect x="20" y="230" width="160" height="40" rx="4" fill="#334155" />
    <rect x="30" y="245" width="20" height="10" rx="2" fill="#94a3b8" />
    <rect x="60" y="245" width="80" height="10" rx="2" fill="#94a3b8" />
    
    <!-- Main content area -->
    <rect x="200" y="0" width="600" height="60" fill="#ffffff" />
    <rect x="220" y="20" width="300" height="20" rx="2" fill="#e2e8f0" />
    <rect x="660" y="15" width="120" height="30" rx="15" fill="#6366f1" />
    <rect x="680" y="25" width="80" height="10" rx="2" fill="#ffffff" />
    
    <!-- Dashboard cards -->
    <g>
      <!-- Card 1 -->
      <rect x="220" y="80" width="170" height="120" rx="6" fill="#ffffff" stroke="#e2e8f0" />
      <rect x="235" y="95" width="140" height="10" rx="2" fill="#94a3b8" />
      <text x="235" y="130" font-family="Arial" font-size="24" fill="#1e293b">78%</text>
      <rect x="235" y="140" width="120" height="8" rx="1" fill="#e2e8f0" />
      <rect x="235" y="140" width="93" height="8" rx="1" fill="#6366f1" />
      <rect x="235" y="155" width="80" height="8" rx="2" fill="#cbd5e1" />
      <rect x="235" y="170" width="60" height="8" rx="2" fill="#cbd5e1" />
      
      <!-- Card 2 -->
      <rect x="410" y="80" width="170" height="120" rx="6" fill="#ffffff" stroke="#e2e8f0" />
      <rect x="425" y="95" width="140" height="10" rx="2" fill="#94a3b8" />
      <text x="425" y="130" font-family="Arial" font-size="24" fill="#1e293b">124</text>
      <rect x="425" y="155" width="80" height="8" rx="2" fill="#cbd5e1" />
      <rect x="425" y="170" width="60" height="8" rx="2" fill="#cbd5e1" />
      
      <!-- Card 3 -->
      <rect x="600" y="80" width="170" height="120" rx="6" fill="#ffffff" stroke="#e2e8f0" />
      <rect x="615" y="95" width="140" height="10" rx="2" fill="#94a3b8" />
      <text x="615" y="130" font-family="Arial" font-size="24" fill="#1e293b">4.2</text>
      <rect x="615" y="140" width="120" height="8" rx="1" fill="#e2e8f0" />
      <rect x="615" y="140" width="80" height="8" rx="1" fill="#10b981" />
      <rect x="615" y="155" width="80" height="8" rx="2" fill="#cbd5e1" />
      <rect x="615" y="170" width="60" height="8" rx="2" fill="#cbd5e1" />
    </g>
    
    <!-- Charts area -->
    <rect x="220" y="220" width="550" height="250" rx="6" fill="#ffffff" stroke="#e2e8f0" />
    <rect x="235" y="235" width="200" height="15" rx="2" fill="#1e293b" />
    <rect x="235" y="260" width="520" height="190" rx="4" fill="#f8fafc" />
    
    <!-- Line chart -->
    <polyline points="255,390 305,350 355,370 405,310 455,330 505,290 555,270 605,290 655,250 705,280" 
              fill="none" stroke="#6366f1" stroke-width="3"/>
    
    <!-- Chart dots -->
    <circle cx="255" cy="390" r="5" fill="#6366f1" />
    <circle cx="305" cy="350" r="5" fill="#6366f1" />
    <circle cx="355" cy="370" r="5" fill="#6366f1" />
    <circle cx="405" cy="310" r="5" fill="#6366f1" />
    <circle cx="455" cy="330" r="5" fill="#6366f1" />
    <circle cx="505" cy="290" r="5" fill="#6366f1" />
    <circle cx="555" cy="270" r="5" fill="#6366f1" />
    <circle cx="605" cy="290" r="5" fill="#6366f1" />
    <circle cx="655" cy="250" r="5" fill="#6366f1" />
    <circle cx="705" cy="280" r="5" fill="#6366f1" />
    
    <!-- X axis labels -->
    <rect x="250" cy="410" width="20" height="8" rx="2" fill="#cbd5e1" />
    <rect x="300" cy="410" width="20" height="8" rx="2" fill="#cbd5e1" />
    <rect x="350" cy="410" width="20" height="8" rx="2" fill="#cbd5e1" />
    <rect x="400" cy="410" width="20" height="8" rx="2" fill="#cbd5e1" />
    <rect x="450" cy="410" width="20" height="8" rx="2" fill="#cbd5e1" />
    <rect x="500" cy="410" width="20" height="8" rx="2" fill="#cbd5e1" />
    <rect x="550" cy="410" width="20" height="8" rx="2" fill="#cbd5e1" />
    <rect x="600" cy="410" width="20" height="8" rx="2" fill="#cbd5e1" />
    <rect x="650" cy="410" width="20" height="8" rx="2" fill="#cbd5e1" />
    <rect x="700" cy="410" width="20" height="8" rx="2" fill="#cbd5e1" />
    
    <!-- Sentiment analysis -->
    <rect x="255" y="280" width="150" height="30" rx="4" fill="#ffffff" stroke="#e2e8f0" />
    <circle cx="275" cy="295" r="10" fill="#10b981" />
    <rect x="295" y="290" width="90" height="10" rx="2" fill="#94a3b8" />
    
    <rect x="255" y="320" width="150" height="30" rx="4" fill="#ffffff" stroke="#e2e8f0" />
    <circle cx="275" cy="335" r="10" fill="#eab308" />
    <rect x="295" y="330" width="90" height="10" rx="2" fill="#94a3b8" />
    
    <rect x="255" y="360" width="150" height="30" rx="4" fill="#ffffff" stroke="#e2e8f0" />
    <circle cx="275" cy="375" r="10" fill="#ef4444" />
    <rect x="295" y="370" width="90" height="10" rx="2" fill="#94a3b8" />
    
    <!-- Voice visualization -->
    <rect x="430" y="280" width="330" height="110" rx="4" fill="#ffffff" stroke="#e2e8f0" />
    
    <!-- Audio waveform representation -->
    <rect x="450" y="315" width="5" height="15" rx="1" fill="#6366f1" />
    <rect x="460" y="310" width="5" height="20" rx="1" fill="#6366f1" />
    <rect x="470" y="295" width="5" height="35" rx="1" fill="#6366f1" />
    <rect x="480" y="290" width="5" height="40" rx="1" fill="#6366f1" />
    <rect x="490" y="300" width="5" height="30" rx="1" fill="#6366f1" />
    <rect x="500" y="315" width="5" height="15" rx="1" fill="#6366f1" />
    <rect x="510" y="305" width="5" height="25" rx="1" fill="#6366f1" />
    <rect x="520" y="295" width="5" height="35" rx="1" fill="#6366f1" />
    <rect x="530" y="310" width="5" height="20" rx="1" fill="#6366f1" />
    <rect x="540" y="320" width="5" height="10" rx="1" fill="#6366f1" />
    <rect x="550" y="305" width="5" height="25" rx="1" fill="#6366f1" />
    <rect x="560" y="290" width="5" height="40" rx="1" fill="#6366f1" />
    <rect x="570" y="285" width="5" height="45" rx="1" fill="#6366f1" />
    <rect x="580" y="295" width="5" height="35" rx="1" fill="#6366f1" />
    <rect x="590" y="310" width="5" height="20" rx="1" fill="#6366f1" />
    <rect x="600" y="315" width="5" height="15" rx="1" fill="#6366f1" />
    <rect x="610" y="305" width="5" height="25" rx="1" fill="#6366f1" />
    <rect x="620" y="312" width="5" height="18" rx="1" fill="#6366f1" />
    <rect x="630" y="320" width="5" height="10" rx="1" fill="#6366f1" />
    <rect x="640" y="317" width="5" height="13" rx="1" fill="#6366f1" />
    <rect x="650" y="312" width="5" height="18" rx="1" fill="#6366f1" />
    <rect x="660" y="315" width="5" height="15" rx="1" fill="#6366f1" />
    <rect x="670" y="318" width="5" height="12" rx="1" fill="#6366f1" />
    <rect x="680" y="320" width="5" height="10" rx="1" fill="#6366f1" />
    <rect x="690" y="319" width="5" height="11" rx="1" fill="#6366f1" />
    <rect x="700" y="318" width="5" height="12" rx="1" fill="#6366f1" />
  </g>
</svg>